<?xml version="1.0" encoding="UTF-8"?>
<svg width="22px" height="23px" viewBox="0 0 22 23" version="1.1" xmlns="http://www.w3.org/2000/svg" xmlns:xlink="http://www.w3.org/1999/xlink">
    <title>Chec Copy</title>
    <g id="v2.2" stroke="none" stroke-width="1" fill="none" fill-rule="evenodd">
        <g id="JB-Landing-Page-(v1.2.2)" transform="translate(-287, -4123)" fill="#0060FF" fill-rule="nonzero">
            <g id="Group-14" transform="translate(288, 4115)">
                <g id="Chec-Copy" transform="translate(-0.75, 8.9711)">
                    <path d="M15.1253534,0.924968912 C15.5037088,1.09242524 15.6737611,1.53283904 15.5051758,1.90866066 C15.3365904,2.28448228 14.8932073,2.45339573 14.5148519,2.2859394 C10.7729506,0.629811274 6.38008752,1.61567387 3.71847507,4.70890228 C1.05686261,7.8021307 0.760540964,12.2658666 2.99020284,15.679464 C5.21986471,19.0930615 9.44436765,20.6433448 13.3727997,19.4896087 C17.3012317,18.3358726 19.9977751,14.752956 20.0001173,10.6842701 L20.0001173,9.7704287 C20.0001173,9.35898793 20.3359047,9.02544927 20.7501194,9.02544927 C21.1643341,9.02544927 21.5001215,9.35898793 21.5001215,9.7704287 L21.5001215,10.6846961 C21.4973993,15.4136639 18.3635785,19.577594 13.7981035,20.9184224 C9.23262844,22.2592509 4.32307096,20.4575702 1.7318423,16.4904165 C-0.85938636,12.5232627 -0.515012555,7.33567772 2.57821273,3.7408447 C5.67143802,0.146011675 10.7766572,-0.999720528 15.1253534,0.924968912 Z M21.2801859,2.21077969 C21.5732263,2.50156682 21.5734636,2.97326165 21.2807159,3.26433957 L11.2806877,13.2073317 C10.9878366,13.4985125 10.5127571,13.4986304 10.2197596,13.207595 L7.21975111,10.2276773 C6.92685707,9.93674473 6.92685707,9.46504985 7.21975111,9.17411728 C7.51264516,8.88318472 7.98752023,8.88318472 8.28041428,9.17411728 L10.7490912,11.6259241 L20.2195228,2.21130621 C20.5122705,1.92022828 20.9871455,1.91999255 21.2801859,2.21077969 Z" id="Combined-Shape"></path>
                </g>
            </g>
        </g>
    </g>
</svg>