<?xml version="1.0" encoding="UTF-8"?>
<svg width="916px" height="180px" viewBox="0 0 916 180" version="1.1" xmlns="http://www.w3.org/2000/svg" xmlns:xlink="http://www.w3.org/1999/xlink">
    <title>Group</title>
    <g id="v2.2" stroke="none" stroke-width="1" fill="none" fill-rule="evenodd">
        <g id="Group" fill="#0060FF" fill-rule="nonzero">
            <path d="M26.8977481,180 C44.4845179,180 56.5538933,166.744312 56.5538933,148.730017 L56.5538933,47.2725453 L38.1050681,47.2725453 L38.2772991,148.220102 C38.2772991,156.887456 33.1046668,162.665592 26.3801548,162.665592 C20.8627603,162.665592 15.690128,160.286289 13.7937862,152.468793 L0,161.646063 C4.65533908,173.881921 14.4833105,180 26.8977481,180 Z M34.6619475,25.3690227 C34.6619475,32.373297 40.490198,38.1817636 47.3467338,38.1817636 C54.3746005,38.1817636 60.2025509,32.373297 60.2025509,25.3690227 C60.2025509,18.535621 54.3746005,12.7271544 47.3467338,12.7271544 C40.490198,12.7271544 34.6619475,18.535621 34.6619475,25.3690227 Z M115.84458,129.090782 C138.64839,129.090782 156.891678,110.768977 156.891678,87.1879598 C156.891678,63.7763141 138.64839,45.4548094 115.84428,45.4548094 C92.8715392,45.4548094 74.7968814,63.7763141 74.7968814,87.1879598 C74.7968814,110.768977 92.8715392,129.090782 115.84428,129.090782 L115.84458,129.090782 Z M116.840759,114.545591 C102.999265,114.545591 93.0404696,103.453888 93.0404696,88.0963773 C93.0404696,73.0803111 102.493073,61.8180362 116.840759,61.8180362 C131.020115,61.8180362 140.472719,72.9097388 140.472719,88.0963773 C140.472719,103.453888 131.020115,114.545591 116.840759,114.545591 Z M192.30016,127.392566 C192.30016,121.957077 192.128529,118.050131 191.956898,115.502357 C197.964581,123.994935 207.062221,129.091082 217.704839,129.091082 C239.333337,129.091082 253.580505,110.916125 253.580505,86.9666363 C253.580505,63.1865184 238.990076,45.521777 217.533208,45.521777 C207.234152,45.521777 198.479774,49.7680657 192.471791,57.5813572 C192.643422,56.2224847 192.815053,55.0335839 192.815053,54.1843262 L192.815053,0 L175.134666,0 L175.134666,127.392266 L192.30046,127.392266 L192.30016,127.392566 Z M213.098109,114.545591 C199.719597,114.545591 191.553626,103.112744 191.553626,88.0963773 C191.553626,72.3977217 199.719597,61.8180362 213.098109,61.8180362 C226.128858,61.8180362 235.337217,72.568294 235.337217,87.9258051 C235.337217,103.283316 225.955126,114.545591 213.098109,114.545591 Z M340.070194,127.392566 C340.070194,121.957077 339.898563,118.050131 339.726932,115.502357 C345.734615,123.994935 354.832255,129.091082 365.474573,129.091082 C387.103372,129.091082 401.350539,110.916125 401.350539,86.9666363 C401.350539,63.1865184 386.75981,45.521777 365.303242,45.521777 C355.003886,45.521777 346.249808,49.7680657 340.241825,57.5813572 C340.413456,56.2224847 340.585087,55.0335839 340.585087,54.1843262 L340.585087,0 L322.9047,0 L322.9047,127.392266 L340.070194,127.392266 L340.070194,127.392566 Z M360.867843,114.545591 C347.489632,114.545591 339.32366,103.112744 339.32366,88.0963773 C339.32366,72.3977217 347.489632,61.8180362 360.867843,61.8180362 C373.898892,61.8180362 383.107251,72.568294 383.107251,87.9258051 C383.107251,103.283316 373.72516,114.545591 360.867843,114.545591 Z M455.16794,129.090782 C477.97205,129.090782 496.215338,110.768977 496.215338,87.1879598 C496.215338,63.7763141 477.97205,45.4548094 455.16794,45.4548094 C432.194899,45.4548094 414.120541,63.7763141 414.120541,87.1879598 C414.120541,110.768977 432.194899,129.090782 455.16794,129.090782 Z M456.164419,114.545591 C442.322924,114.545591 432.364129,103.453888 432.364129,88.0963773 C432.364129,73.0803111 441.816733,61.8180362 456.164419,61.8180362 C470.343475,61.8180362 479.796379,72.9097388 479.796379,88.0963773 C479.796379,103.453888 470.343475,114.545591 456.164419,114.545591 Z M592.904165,127.408182 L592.904165,111.253066 L590.494731,111.253066 C587.396672,111.253066 585.503631,109.401996 585.503631,106.541307 L585.503631,77.4281024 C585.503631,58.4122964 572.079212,45.4548094 550.222072,45.4548094 C527.676008,45.4548094 518.210202,61.1048159 518.210202,61.1048159 L531.118229,70.6968038 C535.248773,64.806955 542.305145,61.273286 549.533448,61.273286 C560.720364,61.273286 567.948667,68.0042843 567.948667,77.9329122 L567.948667,81.9719917 C563.645892,81.1305418 556.073427,79.4476421 547.295945,79.4476421 C522.684909,79.4476421 510.809668,91.3955095 510.809668,105.699557 C510.809668,117.647724 520.103544,129.090782 538.518763,129.090782 C554.696779,129.090782 564.678678,121.181694 569.842008,113.440775 C572.251443,121.686503 577.586704,127.407882 587.913066,127.407882 L592.904165,127.407882 L592.904165,127.408182 Z M542.22203,114.545591 C533.328427,114.545591 529.052657,109.887286 529.052657,104.193836 C529.052657,96.4300944 537.262136,90.9090181 549.918417,90.9090181 C556.417589,90.9090181 563.429853,92.116838 567.363562,92.9793091 C565.482223,103.676113 556.930681,114.545591 542.22203,114.545591 Z M647.049824,45.3824363 C636.987511,45.3824363 629.654189,50.8215297 625.049259,58.470255 C625.21999,56.4305949 625.39042,54.3909348 625.39042,52.6912181 L625.39042,47.2521246 L607.824354,47.2521246 L607.824354,127.478754 L625.39042,127.478754 L625.39042,85.325779 C625.39042,71.5580737 634.258819,62.7195467 647.049824,62.2096317 L647.049824,45.3824363 Z M737.025542,127.392266 L737.025542,0 L719.345155,0 L719.345155,54.1843262 C719.345155,55.2032553 719.516786,56.2224847 719.688417,57.2414138 C713.508803,49.4281224 704.582794,45.5214767 694.627,45.5214767 C673.170132,45.5214767 658.579703,63.1865184 658.579703,86.966336 C658.579703,110.916125 672.82687,129.090782 694.455369,129.090782 C704.926056,129.090782 714.023696,124.165207 720.20331,115.672329 C720.031679,118.220102 719.860048,121.957077 719.860048,127.392266 L737.025542,127.392266 L737.025542,127.392266 Z M699.062099,114.545591 C686.205082,114.545591 676.822991,103.283316 676.822991,87.9258051 C676.822991,72.568294 686.03135,61.8180362 699.062099,61.8180362 C712.44061,61.8180362 720.606582,72.3977217 720.606582,88.0963773 C720.606582,103.112744 712.44061,114.545591 699.062099,114.545591 L699.062099,114.545591 Z M777.858101,127.478754 L777.858101,0 L759.780443,0 L759.780443,127.478754 L777.858101,127.478754 Z M799.346774,175.750708 L818.107056,175.750708 L875.239753,47.2521246 L856.138311,47.2521246 L839.76616,84.815864 C835.673122,94.3342776 832.773699,101.303116 832.773699,101.303116 C832.773699,101.303116 830.386169,94.3342776 826.463562,84.815864 L810.944165,47.2521246 L792.013453,47.2521246 L823.223278,122.03966 L799.346774,175.750708 Z M884.619744,113.371105 C884.619744,121.869688 891.782635,129.008499 900.309872,129.008499 C908.837409,129.008499 916,121.869688 916,113.371105 C916,104.872521 908.837109,97.733711 900.309872,97.733711 C891.782335,97.733711 884.619744,104.872521 884.619744,113.371105 Z" id="Shape"></path>
        </g>
    </g>
</svg>