<?xml version="1.0" encoding="UTF-8"?>
<svg width="209px" height="135px" viewBox="0 0 209 135" version="1.1" xmlns="http://www.w3.org/2000/svg" xmlns:xlink="http://www.w3.org/1999/xlink">
    <title>Watch this YouTube video introduction Job Boardly!</title>
    <g id="v2.1" stroke="none" stroke-width="1" fill="none" fill-rule="evenodd">
        <g id="JB-Landing-Page-(v1.2.1)" transform="translate(-148, -472)" fill="#0060FF" fill-rule="nonzero">
            <g id="Group-8" transform="translate(148.3939, 472.3653)">
                <g id="Watch-this-video!" transform="translate(125.7704, 20.8036) rotate(-9) translate(-125.7704, -20.8036)translate(43.5513, 12.7629)">
                    <path d="M4.10220337,15.8422852 L-2.88406415e-13,0.563964844 L3.39580536,0.563964844 L5.17710114,8.10507202 C5.32172394,8.73568726 5.45542526,9.39223099 5.57820511,10.0747032 C5.70098495,10.7571754 5.82125473,11.4406357 5.93901443,12.1250839 C6.05677414,12.8095322 6.17087555,13.4775848 6.28131866,14.1292419 L5.69908905,14.1292419 C5.82384491,13.4775848 5.94787979,12.8095322 6.0711937,12.1250839 C6.1945076,11.4406357 6.32342911,10.7571754 6.45795822,10.0747032 C6.59248734,9.39223099 6.73574829,8.73568726 6.88774109,8.10507202 L8.76468658,0.563964844 L12.005722,0.563964844 L13.8732147,8.10507202 C14.0271301,8.73568726 14.1711655,9.39223099 14.3053207,10.0747032 C14.439476,10.7571754 14.5694923,11.4406357 14.6953697,12.1250839 C14.8212471,12.8095322 14.9465103,13.4775848 15.0711594,14.1292419 L14.4693832,14.1292419 C14.5866623,13.4775848 14.7032738,12.8095322 14.8192177,12.1250839 C14.9351616,11.4406357 15.0570068,10.7571754 15.1847534,10.0747032 C15.3125,9.39223099 15.4452667,8.73568726 15.5830536,8.10507202 L17.3651505,0.563964844 L20.7704086,0.563964844 L16.6587524,15.8422852 L13.1060944,15.8422852 L11.0247116,7.82469177 C10.8306351,7.05661011 10.6562119,6.218647 10.501442,5.31080246 C10.3466721,4.40295792 10.1719284,3.44136047 9.977211,2.42601013 L10.7835846,2.42601013 C10.5754089,3.42597961 10.4010391,4.3758812 10.2604752,5.27571487 C10.1199112,6.17554855 9.94687653,7.02520752 9.74137115,7.82469177 L7.66143036,15.8422852 L4.10220337,15.8422852 Z" id="Path"></path>
                    <path d="M23.9083445,16.0483246 C23.182667,16.0483246 22.534775,15.9234352 21.9646685,15.6736565 C21.394562,15.4238777 20.9459536,15.0505714 20.6188433,14.5537376 C20.291733,14.0569038 20.1281778,13.4380112 20.1281778,12.6970596 C20.1281778,12.0660172 20.2436144,11.5405312 20.4744875,11.1206017 C20.7053606,10.7006721 21.0212023,10.3625336 21.4220125,10.1061859 C21.8228228,9.84983826 22.2805102,9.65482712 22.7950747,9.5211525 C23.3096392,9.38747787 23.8493311,9.29388428 24.4141504,9.2403717 C25.0753138,9.17382813 25.6061937,9.11072922 26.0067904,9.05107498 C26.407387,8.99142075 26.698662,8.90057755 26.8806154,8.77854538 C27.0625689,8.65651321 27.1535456,8.4746933 27.1535456,8.23308563 L27.1535456,8.17540741 C27.1535456,7.87152863 27.0835039,7.61101532 26.9434206,7.39386749 C26.8033373,7.17671967 26.6006357,7.00889206 26.3353159,6.89038467 C26.0699961,6.77187729 25.7465708,6.7126236 25.36504,6.7126236 C24.9803049,6.7126236 24.6432078,6.77193069 24.3537485,6.89054489 C24.0642893,7.00915909 23.8303721,7.17044449 23.6519968,7.37440109 C23.4736216,7.5783577 23.3538859,7.81080627 23.2927897,8.07174683 L20.4638331,7.78559875 C20.6016199,7.08662415 20.8872606,6.48893356 21.3207552,5.99252701 C21.7542498,5.49612045 22.3171732,5.11485672 23.0095255,4.84873581 C23.7018778,4.5826149 24.5005076,4.44955444 25.4054148,4.44955444 C26.0691416,4.44955444 26.6912119,4.5269928 27.2716257,4.68186951 C27.8520395,4.83674622 28.3610766,5.07157135 28.7987368,5.38634491 C29.236397,5.70111847 29.578274,6.09797668 29.8243677,6.57691956 C30.0704615,7.05586243 30.1935084,7.62030792 30.1935084,8.27025604 L30.1935084,15.8422852 L27.2631342,15.8422852 L27.2631342,14.2756805 L27.1854288,14.2756805 C26.9988291,14.6296539 26.7566607,14.9396744 26.4589235,15.2057419 C26.1611864,15.4718094 25.8022196,15.6787567 25.3820231,15.8265839 C24.9618265,15.974411 24.4706003,16.0483246 23.9083445,16.0483246 Z M24.7615015,13.9156723 C25.2464258,13.9156723 25.6696665,13.8219986 26.0312235,13.6346512 C26.3927805,13.4473038 26.6739084,13.1938667 26.8746073,12.8743401 C27.0753061,12.5548134 27.1756556,12.1962738 27.1756556,11.7987213 L27.1756556,10.6175995 C27.0846522,10.6743164 26.95525,10.7280159 26.7874491,10.778698 C26.6196482,10.82938 26.4298174,10.875843 26.2179567,10.918087 C26.0060961,10.960331 25.7894289,10.9987831 25.5679552,11.0334435 C25.3464815,11.0681038 25.1360895,11.1000671 24.9367792,11.1293335 C24.5724451,11.1802826 24.2482187,11.2650909 23.9641001,11.3837585 C23.6799814,11.5024261 23.4571726,11.661068 23.2956736,11.859684 C23.1341746,12.0583 23.053425,12.3078918 23.053425,12.6084595 C23.053425,12.8885193 23.126137,13.125988 23.2715609,13.3208656 C23.4169848,13.5157433 23.6176302,13.6635971 23.8734972,13.7644272 C24.1293642,13.8652573 24.4253657,13.9156723 24.7615015,13.9156723 Z" id="Shape"></path>
                    <path d="M38.0690888,4.62563324 L38.0690888,6.98002625 L31.1493043,6.98002625 L31.1493043,4.62563324 L38.0690888,4.62563324 Z M32.8421601,1.81045532 L35.8944596,1.81045532 L35.8944596,12.49086 C35.8944596,12.8560486 35.9729394,13.119072 36.1298989,13.2799301 C36.2868585,13.4407883 36.557866,13.5212173 36.9429215,13.5212173 C37.0830583,13.5212173 37.2635163,13.5122986 37.4842958,13.4944611 C37.7050752,13.4766235 37.8739442,13.4593201 37.9909028,13.4425507 L38.2599076,15.7741928 C37.9798478,15.8362503 37.6731118,15.8794289 37.3396997,15.9037285 C37.0062875,15.9280281 36.6803254,15.9401779 36.3618135,15.9401779 C35.1941499,15.9401779 34.3156251,15.6791039 33.7262391,15.1569557 C33.1368531,14.6348076 32.8421601,13.8625336 32.8421601,12.8401337 L32.8421601,1.81045532 Z" id="Shape"></path>
                    <path d="M44.3006135,16.0749207 C43.1768494,16.0749207 42.2001649,15.8313103 41.3705598,15.3440895 C40.5409547,14.8568687 39.8991776,14.1771202 39.4452286,13.3048439 C38.9912797,12.4325676 38.7643052,11.4202881 38.7643052,10.2680054 C38.7643052,9.1086731 38.9912797,8.09177399 39.4452286,7.21730804 C39.8991776,6.3428421 40.5409547,5.66170502 41.3705598,5.17389679 C42.2001649,4.68608856 43.1768494,4.44218445 44.3006135,4.44218445 C44.9945679,4.44218445 45.6334878,4.53705978 46.217373,4.72681046 C46.8012582,4.91656113 47.3158494,5.18639374 47.7611466,5.53630829 C48.2064439,5.88622284 48.5687218,6.30660629 48.8479806,6.79745865 C49.1272393,7.288311 49.3098069,7.83612061 49.3956834,8.44088745 L46.5104905,8.76821136 C46.4562302,8.47864532 46.3681641,8.21754456 46.2462922,7.98490906 C46.1244202,7.75227356 45.9717065,7.55274963 45.7881509,7.38633728 C45.6045953,7.21992493 45.3915864,7.09249878 45.1491242,7.00405884 C44.9066621,6.9156189 44.6363221,6.87139893 44.3381043,6.87139893 C43.8061829,6.87139893 43.3564263,7.01252365 42.9888344,7.2947731 C42.6212426,7.57702255 42.3419572,7.97203827 42.1509782,8.47982025 C41.9599992,8.98760223 41.8645096,9.5814209 41.8645096,10.2612762 C41.8645096,10.9322662 41.9599992,11.5220528 42.1509782,12.0306358 C42.3419572,12.5392189 42.621296,12.9355431 42.9889947,13.2196083 C43.3566933,13.5036736 43.8063966,13.6457062 44.3381043,13.6457062 C44.6382447,13.6457062 44.9099198,13.6006851 45.1531296,13.510643 C45.3963395,13.4206009 45.6099892,13.2908783 45.7940789,13.1214752 C45.9781686,12.9520721 46.1311761,12.7464066 46.2531014,12.5044785 C46.3750268,12.2625504 46.4637604,11.9923706 46.5193024,11.6939392 L49.407219,12.0178986 C49.3289262,12.6308899 49.1507645,13.1852417 48.8727341,13.680954 C48.5947037,14.1766663 48.2324792,14.6035652 47.7860604,14.9616508 C47.3396416,15.3197365 46.8218461,15.5948029 46.2326737,15.78685 C45.6435013,15.9788971 44.9994813,16.0749207 44.3006135,16.0749207 Z" id="Path"></path>
                    <path d="M53.9227727,9.44657135 L53.9227727,15.8422852 L50.8704732,15.8422852 L50.8704732,0.563964844 L53.8889668,0.563964844 L53.8889668,7.47077179 L53.5171025,7.47077179 C53.83476,6.5134201 54.3041432,5.77054596 54.9252522,5.24214935 C55.5463612,4.71375275 56.3439229,4.44955444 57.3179372,4.44955444 C58.1037495,4.44955444 58.7880109,4.61981201 59.3707211,4.96032715 C59.9534314,5.30084229 60.4053777,5.79172134 60.7265599,6.43296432 C61.0477422,7.07420731 61.2083333,7.84621429 61.2083333,8.74898529 L61.2083333,15.8422852 L58.1531499,15.8422852 L58.1531499,9.2922821 C58.1531499,8.5748291 57.9735997,8.01900864 57.6144994,7.62482071 C57.255399,7.23063278 56.7539723,7.03353882 56.1102193,7.03353882 C55.6843617,7.03353882 55.3065694,7.12472916 54.9768422,7.30710983 C54.647115,7.48949051 54.389005,7.75934982 54.2025121,8.11668777 C54.0160191,8.47402573 53.9227727,8.91732025 53.9227727,9.44657135 Z" id="Path"></path>
                    <path d="M73.4165825,4.62563324 L73.4165825,6.98002625 L66.4967979,6.98002625 L66.4967979,4.62563324 L73.4165825,4.62563324 Z M68.1896538,1.81045532 L71.2419533,1.81045532 L71.2419533,12.49086 C71.2419533,12.8560486 71.320433,13.119072 71.4773926,13.2799301 C71.6343521,13.4407883 71.9053596,13.5212173 72.2904152,13.5212173 C72.4305519,13.5212173 72.61101,13.5122986 72.8317894,13.4944611 C73.0525688,13.4766235 73.2214378,13.4593201 73.3383964,13.4425507 L73.6074013,15.7741928 C73.3273414,15.8362503 73.0206054,15.8794289 72.6871933,15.9037285 C72.3537811,15.9280281 72.027819,15.9401779 71.7093071,15.9401779 C70.5416435,15.9401779 69.6631187,15.6791039 69.0737327,15.1569557 C68.4843468,14.6348076 68.1896538,13.8625336 68.1896538,12.8401337 L68.1896538,1.81045532 Z" id="Shape"></path>
                    <path d="M77.8576434,9.44657135 L77.8576434,15.8422852 L74.8053439,15.8422852 L74.8053439,0.563964844 L77.8238375,0.563964844 L77.8238375,7.47077179 L77.4519732,7.47077179 C77.7696307,6.5134201 78.2390139,5.77054596 78.8601229,5.24214935 C79.4812319,4.71375275 80.2787936,4.44955444 81.2528079,4.44955444 C82.0386203,4.44955444 82.7228816,4.61981201 83.3055918,4.96032715 C83.8883021,5.30084229 84.3402484,5.79172134 84.6614306,6.43296432 C84.9826129,7.07420731 85.143204,7.84621429 85.143204,8.74898529 L85.143204,15.8422852 L82.0880206,15.8422852 L82.0880206,9.2922821 C82.0880206,8.5748291 81.9084704,8.01900864 81.5493701,7.62482071 C81.1902697,7.23063278 80.688843,7.03353882 80.04509,7.03353882 C79.6192324,7.03353882 79.2414401,7.12472916 78.9117129,7.30710983 C78.5819857,7.48949051 78.3238757,7.75934982 78.1373828,8.11668777 C77.9508898,8.47402573 77.8576434,8.91732025 77.8576434,9.44657135 Z" id="Path"></path>
                    <path d="M87.123261,15.8422852 L87.123261,4.62451172 L90.1686711,4.62451172 L90.1686711,15.8422852 L87.123261,15.8422852 Z M88.651093,3.17871094 C88.1725774,3.17871094 87.7692571,3.02490234 87.4411321,2.71728516 C87.1130071,2.40966797 86.9489446,2.03369141 86.9489446,1.58935547 C86.9489446,1.13818359 87.1130071,0.760498047 87.4411321,0.456298828 C87.7692571,0.152099609 88.1691594,7.13023034e-13 88.6408391,7.13023034e-13 C89.1193547,7.13023034e-13 89.524384,0.152099609 89.855927,0.456298828 C90.18747,0.760498047 90.3532414,1.13818359 90.3532414,1.58935547 C90.3532414,2.03369141 90.18747,2.40966797 89.855927,2.71728516 C89.524384,3.02490234 89.1227727,3.17871094 88.651093,3.17871094 Z" id="Shape"></path>
                    <path d="M96.6801277,16.0813293 C95.7526832,16.0813293 94.9295402,15.9446373 94.2106987,15.6712532 C93.4918571,15.3978691 92.9094673,15.0016251 92.4635292,14.4825211 C92.0175911,13.9634171 91.7418037,13.3376083 91.6361671,12.6050949 L94.5444313,12.3042068 C94.6566902,12.8123093 94.8936248,13.1994476 95.2552353,13.4656219 C95.6168457,13.7317963 96.1034523,13.8648834 96.715055,13.8648834 C97.2921577,13.8648834 97.7468544,13.7551346 98.079145,13.5356369 C98.4114357,13.3161392 98.577581,13.0367203 98.577581,12.6973801 C98.577581,12.4030075 98.4560028,12.1631889 98.2128463,11.9779243 C97.9696899,11.7926598 97.6074119,11.651268 97.1260124,11.5537491 L95.1817756,11.1628189 C94.0981727,10.9435349 93.2832809,10.5650215 92.7371002,10.0272789 C92.1909195,9.48953629 91.9178291,8.79619598 91.9178291,7.947258 C91.9178291,7.23236847 92.1125732,6.61336899 92.5020614,6.09025955 C92.8915496,5.56715012 93.4400535,5.16278839 94.1475731,4.87717438 C94.8550926,4.59156036 95.6861396,4.44875336 96.6407142,4.44875336 C97.5598274,4.44875336 98.3576027,4.58336258 99.03404,4.85258102 C99.7104774,5.12179947 100.250063,5.50178146 100.652795,5.99252701 C101.055528,6.48327255 101.304105,7.06632996 101.398527,7.74169922 L98.642469,8.0353775 C98.5663124,7.62725067 98.3615547,7.29146194 98.0281959,7.02801132 C97.6948372,6.7645607 97.2538124,6.63283539 96.7051216,6.63283539 C96.1938148,6.63283539 95.7759414,6.74063492 95.4515014,6.95623398 C95.1270614,7.17183304 94.9648414,7.44876862 94.9648414,7.78704071 C94.9648414,8.07180023 95.0775276,8.30990982 95.3028999,8.50136948 C95.5282722,8.69282913 95.8864113,8.83982849 96.377317,8.94236755 L98.4343467,9.34819794 C99.5378166,9.56929779 100.355485,9.92946625 100.887353,10.4287033 C101.419221,10.9279404 101.685155,11.5830154 101.685155,12.3939285 C101.685155,13.1335983 101.47212,13.7797813 101.046049,14.3324776 C100.619978,14.8851738 100.030832,15.3148232 99.2786117,15.6214256 C98.5263916,15.9280281 97.6602302,16.0813293 96.6801277,16.0813293 Z" id="Path"></path>
                    <path d="M110.626557,15.8422852 L106.486702,4.62563324 L109.715722,4.62563324 L111.588341,10.3425064 C111.813607,11.0432968 112.015667,11.7498283 112.194523,12.462101 C112.373379,13.1743736 112.554291,13.9023743 112.737259,14.6461029 L112.053933,14.6461029 C112.234444,13.9023743 112.412552,13.1749344 112.588257,12.4637833 C112.763962,11.7526321 112.960976,11.0455399 113.179299,10.3425064 L115.026604,4.62563324 L118.221177,4.62563324 L114.074433,15.8422852 L110.626557,15.8422852 Z" id="Path"></path>
                    <path d="M119.227003,15.8422852 L119.227003,4.62451172 L122.272413,4.62451172 L122.272413,15.8422852 L119.227003,15.8422852 Z M120.754835,3.17871094 C120.276319,3.17871094 119.872999,3.02490234 119.544874,2.71728516 C119.216749,2.40966797 119.052686,2.03369141 119.052686,1.58935547 C119.052686,1.13818359 119.216749,0.760498047 119.544874,0.456298828 C119.872999,0.152099609 120.272901,3.516534e-13 120.744581,3.516534e-13 C121.223096,3.516534e-13 121.628126,0.152099609 121.959669,0.456298828 C122.291212,0.760498047 122.456983,1.13818359 122.456983,1.58935547 C122.456983,2.03369141 122.291212,2.40966797 121.959669,2.71728516 C121.628126,3.02490234 121.226514,3.17871094 120.754835,3.17871094 Z" id="Shape"></path>
                    <path d="M128.450778,16.0472031 C127.549609,16.0472031 126.745986,15.8168373 126.039908,15.3561058 C125.333831,14.8953743 124.780066,14.2319679 124.378615,13.3658867 C123.977164,12.4998055 123.776438,11.4584198 123.776438,10.2417297 C123.776438,9.01179504 123.982104,7.96520233 124.393435,7.1019516 C124.804766,6.23870087 125.362536,5.58082199 126.066744,5.12831497 C126.770953,4.67580795 127.559222,4.44955444 128.431552,4.44955444 C129.011645,4.44955444 129.510642,4.54077148 129.928542,4.72320557 C130.346442,4.90563965 130.698172,5.14404297 130.983733,5.43841553 C131.269293,5.73278809 131.497523,6.04937744 131.668421,6.38818359 L131.734912,6.38818359 L131.734912,0.563964844 L134.787211,0.563964844 L134.787211,15.8422852 L131.781695,15.8422852 L131.781695,14.0744476 L131.684443,14.0744476 C131.517069,14.426178 131.288466,14.7514992 130.998633,15.0504112 C130.7088,15.3493233 130.353865,15.5901833 129.933829,15.7729912 C129.513793,15.9557991 129.019442,16.0472031 128.450778,16.0472031 Z M129.333254,13.5841827 C129.852145,13.5841827 130.298136,13.4449806 130.671229,13.1665764 C131.044322,12.8881721 131.33079,12.497963 131.530635,11.9959488 C131.730479,11.4939346 131.830401,10.9072723 131.830401,10.2359619 C131.830401,9.55888367 131.73096,8.97190094 131.532077,8.47501373 C131.333193,7.97812653 131.047206,7.59248352 130.674113,7.31808472 C130.30102,7.04368591 129.854067,6.90648651 129.333254,6.90648651 C128.816714,6.90648651 128.375983,7.04411316 128.011061,7.31936646 C127.64614,7.59461975 127.368109,7.98103714 127.17697,8.47861862 C126.985831,8.9762001 126.890261,9.5619812 126.890261,10.2359619 C126.890261,10.9083405 126.986312,11.4959641 127.178412,11.9988327 C127.370513,12.5017014 127.649504,12.8916435 128.015387,13.1686592 C128.38127,13.4456749 128.820559,13.5841827 129.333254,13.5841827 Z" id="Shape"></path>
                    <path d="M141.853999,16.0749207 C140.713892,16.0749207 139.726767,15.8344612 138.892622,15.3535423 C138.058478,14.8726234 137.415793,14.1968536 136.964568,13.3262329 C136.513342,12.4556122 136.28773,11.4381256 136.28773,10.2737732 C136.28773,9.1235199 136.513956,8.11067963 136.96641,7.23525238 C137.418864,6.35982513 138.05279,5.675457 138.868189,5.18214798 C139.683588,4.68883896 140.634318,4.44218445 141.720377,4.44218445 C142.487604,4.44218445 143.196539,4.56790161 143.847182,4.81933594 C144.497824,5.07077026 145.06486,5.44073868 145.548289,5.92924118 C146.031718,6.41774368 146.40732,7.01749039 146.675097,7.72848129 C146.942873,8.4394722 147.076762,9.25564575 147.076762,10.177002 L147.076762,11.0210266 L137.478144,11.0210266 L137.478144,9.0883255 L145.594912,9.0883255 L144.186602,9.58291626 C144.186602,9.00570679 144.092261,8.50553513 143.903578,8.08240128 C143.714896,7.65926743 143.440443,7.33181 143.080221,7.10002899 C142.72,6.86824799 142.279162,6.75235748 141.757708,6.75235748 C141.238818,6.75235748 140.795363,6.86920929 140.427344,7.1029129 C140.059325,7.33661652 139.777636,7.65926743 139.582278,8.07086563 C139.386919,8.48246384 139.28924,8.95865631 139.28924,9.49944305 L139.28924,10.845108 C139.28924,11.4668579 139.396132,11.9970703 139.609915,12.4357452 C139.823698,12.8744202 140.128084,13.207859 140.523074,13.4360619 C140.918063,13.6642647 141.383173,13.7783661 141.918406,13.7783661 C142.291178,13.7783661 142.62686,13.7248802 142.925452,13.6179085 C143.224043,13.5109367 143.478041,13.355793 143.687445,13.1524773 C143.896849,12.9491615 144.052927,12.7040558 144.15568,12.41716 L146.929201,12.7315063 C146.764284,13.397049 146.44911,13.9805603 145.983679,14.4820404 C145.518248,14.9835205 144.93455,15.3743706 144.232584,15.6545906 C143.530619,15.9348106 142.737757,16.0749207 141.853999,16.0749207 Z" id="Path"></path>
                    <path d="M153.625596,16.0749207 C152.498948,16.0749207 151.518098,15.8324051 150.683046,15.347374 C149.847993,14.8623428 149.202077,14.1840363 148.745298,13.3124542 C148.288518,12.4408722 148.060128,11.4260559 148.060128,10.2680054 C148.060128,9.10301208 148.288518,8.08397675 148.745298,7.21089935 C149.202077,6.33782196 149.847993,5.65810013 150.683046,5.17173386 C151.518098,4.68536758 152.498948,4.44218445 153.625596,4.44218445 C154.756837,4.44218445 155.738675,4.68536758 156.571111,5.17173386 C157.403547,5.65810013 158.048154,6.33782196 158.504934,7.21089935 C158.961713,8.08397675 159.190103,9.10301208 159.190103,10.2680054 C159.190103,11.4260559 158.961713,12.4408722 158.504934,13.3124542 C158.048154,14.1840363 157.403547,14.8623428 156.571111,15.347374 C155.738675,15.8324051 154.756837,16.0749207 153.625596,16.0749207 Z M153.625596,13.6413803 C154.151323,13.6413803 154.598008,13.4990807 154.965654,13.2144814 C155.333299,12.929882 155.613065,12.5331573 155.804952,12.0243073 C155.996839,11.5154572 156.092782,10.9277802 156.092782,10.2612762 C156.092782,9.58654785 155.996839,8.99585342 155.804952,8.48919296 C155.613065,7.9825325 155.333299,7.58695602 154.965654,7.30246353 C154.598008,7.01797104 154.151323,6.87572479 153.625596,6.87572479 C153.102327,6.87572479 152.656575,7.01767731 152.288343,7.30158234 C151.92011,7.58548737 151.64005,7.98058319 151.448163,8.48686981 C151.256276,8.99315643 151.160333,9.58462524 151.160333,10.2612762 C151.160333,10.9290619 151.256276,11.5170593 151.448163,12.0252686 C151.64005,12.5334778 151.91979,12.929882 152.287381,13.2144814 C152.654973,13.4990807 153.101045,13.6413803 153.625596,13.6413803 Z" id="Shape"></path>
                    <path d="M161.251238,11.1346207 L161.00947,0.563964844 L164.286394,0.563964844 L164.041743,11.1346207 L161.251238,11.1346207 Z M162.650736,16.0331039 C162.137293,16.0331039 161.710528,15.8686943 161.37044,15.539875 C161.030352,15.2110558 160.860308,14.7965469 160.860308,14.2963486 C160.860308,13.7928391 161.030352,13.3769951 161.37044,13.0488167 C161.710528,12.7206383 162.137293,12.5565491 162.650736,12.5565491 C163.167704,12.5565491 163.59487,12.7206383 163.932234,13.0488167 C164.269598,13.3769951 164.43828,13.7928391 164.43828,14.2963486 C164.43828,14.7965469 164.269598,15.2110558 163.932234,15.539875 C163.59487,15.8686943 163.167704,16.0331039 162.650736,16.0331039 Z" id="Shape"></path>
                </g>
                <path d="M38.906599,37.2113117 C39.6743965,38.3588535 39.366553,39.9115429 38.2190112,40.6793404 C-7.70490383,71.4061251 -6.05675418,95.551503 43.3811331,116.202075 L44.8420049,116.805532 L58.2520049,121.576532 L46.4350049,108.00955 C45.5675802,107.013672 45.6294704,105.525542 46.5476541,104.604386 L46.6781618,104.482387 C47.7193067,103.575534 49.2984711,103.684399 50.2053242,104.725544 L68.291223,125.489702 L71.2103391,128.841097 L66.8303775,129.595434 L39.693553,134.269057 C38.3328734,134.503399 37.0398528,133.590323 36.8055105,132.229643 C36.5711683,130.868963 37.4842451,129.575943 38.8449247,129.3416 L56.5750049,126.287532 L43.1107934,121.496632 L43.0038049,121.455781 C-11.6517669,99.1392676 -14.2482904,69.7682213 35.4385703,36.5237239 C36.5861121,35.7559264 38.1388014,36.0637699 38.906599,37.2113117 Z" id="Path-2"></path>
            </g>
        </g>
    </g>
</svg>