<?xml version="1.0" encoding="UTF-8"?>
<svg width="19px" height="19px" viewBox="0 0 19 19" version="1.1" xmlns="http://www.w3.org/2000/svg" xmlns:xlink="http://www.w3.org/1999/xlink">
    <title>Shape</title>
    <g id="v2.2" stroke="none" stroke-width="1" fill="none" fill-rule="evenodd">
        <g id="JB-Landing-Page-(v1.2.2)" transform="translate(-1075, -7665)" fill="#FFFFFF" fill-rule="nonzero">
            <g id="Group-26" transform="translate(230, 7199)">
                <g id="Group-17" transform="translate(0, 288.9978)">
                    <g id="Group-18" transform="translate(845, 176.9986)">
                        <path d="M4.25296467,18.9998534 L0.313877874,18.9998534 L0.313877874,6.34206948 L4.25296467,6.34206948 L4.25296467,18.9998534 Z M0.00039749451,2.31897327 C-0.014973396,1.49566767 0.416398197,0.728252413 1.12847591,0.312108177 C1.84055362,-0.104036059 2.72233083,-0.104036059 3.43440854,0.312108177 C4.14648626,0.728252413 4.57785785,1.49566767 4.56248696,2.31897327 C4.56248696,3.57495657 3.54130087,4.61686977 2.28183804,4.61686977 C1.02158358,4.61528991 0.00039749451,3.5757465 0.00039749451,2.31897327 Z M15.0648713,18.9998534 L15.0648713,12.8384259 C15.0648713,11.3691624 15.0347898,9.4867673 13.0169578,9.4867673 C10.9690443,9.4867673 10.6547723,11.082419 10.6547723,12.7325757 L10.6547723,18.9998534 L6.72122685,18.9998534 L6.72122685,6.34206948 L10.4988237,6.34206948 L10.4988237,8.06884904 L10.5542369,8.06884904 C11.0798707,7.07433144 12.3646653,6.02530891 14.2811703,6.02530891 C18.2669625,6.02530891 19,8.64470553 19,12.0469194 L19,18.9998534 L18.9960419,18.9998534 L15.0648713,18.9998534 Z" id="Shape"></path>
                    </g>
                </g>
            </g>
        </g>
    </g>
</svg>